<svg xmlns="http://www.w3.org/2000/svg" viewBox="0 0 16 7.87"><defs><style>.cls-1{fill:#85d0ec;}.cls-2{fill:#6ec27f;}.cls-3{fill:#4154a4;}</style></defs><g id="Layer_2" data-name="Layer 2"><g id="Layer_1-2" data-name="Layer 1"><path class="cls-1" d="M11.13,1.43a1.43,1.43,0,0,1-.22.77L9.7,4.08,8,6.73,7.27,7.87H3.87l1.7-2.64L6.3,4.08,8,1.44,8.5.66a1.43,1.43,0,0,1,2.63.77Z"/><path class="cls-2" d="M16,1.43a1.36,1.36,0,0,1-.23.77L12.13,7.87H8.74l1.69-2.64L13.37.66A1.43,1.43,0,0,1,16,1.43Z"/><path class="cls-3" d="M8,1.44,6.3,4.08,5.1,2.2a1.36,1.36,0,0,1-.23-.77A1.43,1.43,0,0,1,7.5.66Z"/><polygon class="cls-3" points="9.7 4.08 10.44 5.23 8.73 7.87 8 6.73 9.7 4.08"/><path class="cls-3" d="M2.63.66,5.57,5.23,3.87,7.87.23,2.2A1.36,1.36,0,0,1,0,1.43,1.41,1.41,0,0,1,.66.23,1.41,1.41,0,0,1,2.63.66Z"/></g></g></svg>